<svg xmlns="http://www.w3.org/2000/svg" xmlns:xlink="http://www.w3.org/1999/xlink" width="500" zoomAndPan="magnify" viewBox="0 0 375 374.999991" height="500" preserveAspectRatio="xMidYMid meet" version="1.0"><defs><g/><clipPath id="id1"><path d="M 143.542969 136 L 183 136 L 183 217 L 143.542969 217 Z M 143.542969 136 " clip-rule="nonzero"/></clipPath><clipPath id="id2"><path d="M 179 148 L 196 148 L 196 217.226562 L 179 217.226562 Z M 179 148 " clip-rule="nonzero"/></clipPath><clipPath id="id3"><path d="M 186 111.476562 L 224.542969 111.476562 L 224.542969 144 L 186 144 Z M 186 111.476562 " clip-rule="nonzero"/></clipPath><clipPath id="id4"><path d="M 208 132 L 224.542969 132 L 224.542969 201 L 208 201 Z M 208 132 " clip-rule="nonzero"/></clipPath></defs><path fill="#eeedde" d="M 187.5 0 C 83.945312 0 0 83.945312 0 187.5 C 0 291.054688 83.945312 375 187.5 375 C 291.054688 375 375 291.054688 375 187.5 C 375 83.945312 291.054688 0 187.5 0 " fill-opacity="1" fill-rule="nonzero"/><g clip-path="url(#id1)"><path fill="#231f20" d="M 145.789062 193.804688 L 179.929688 213.457031 L 179.984375 159.125 L 145.789062 139.714844 Z M 181.027344 216.46875 C 180.839844 216.46875 180.652344 216.421875 180.480469 216.324219 L 144.144531 195.402344 C 143.800781 195.207031 143.589844 194.839844 143.589844 194.445312 L 143.589844 137.820312 C 143.589844 137.425781 143.800781 137.0625 144.136719 136.867188 C 144.472656 136.667969 144.890625 136.664062 145.230469 136.855469 L 181.625 157.515625 C 181.96875 157.710938 182.183594 158.078125 182.183594 158.480469 L 182.128906 215.367188 C 182.128906 215.761719 181.917969 216.125 181.578125 216.320312 C 181.410156 216.421875 181.21875 216.46875 181.027344 216.46875 " fill-opacity="1" fill-rule="nonzero"/></g><path fill="#231f20" d="M 186.753906 160.292969 C 185.0625 160.292969 183.105469 160.046875 180.851562 159.558594 C 180.257812 159.429688 179.882812 158.839844 180.007812 158.246094 C 180.136719 157.648438 180.722656 157.269531 181.316406 157.398438 C 186.324219 158.484375 189.652344 158.277344 191.496094 156.761719 C 192.878906 155.625 193.578125 153.609375 193.628906 150.617188 L 158.445312 130.195312 C 157.921875 129.890625 157.742188 129.214844 158.046875 128.6875 C 158.347656 128.15625 159.019531 127.976562 159.546875 128.28125 L 195.28125 149.019531 C 195.617188 149.214844 195.824219 149.574219 195.828125 149.964844 C 195.878906 154.023438 194.917969 156.804688 192.890625 158.472656 C 191.40625 159.691406 189.402344 160.292969 186.753906 160.292969 " fill-opacity="1" fill-rule="nonzero"/><g clip-path="url(#id2)"><path fill="#231f20" d="M 186.992188 217.222656 C 185.234375 217.222656 183.183594 216.964844 180.796875 216.445312 C 180.203125 216.316406 179.824219 215.726562 179.953125 215.132812 C 180.082031 214.535156 180.667969 214.15625 181.261719 214.285156 C 186.429688 215.40625 189.816406 215.234375 191.617188 213.757812 C 193.011719 212.609375 193.671875 210.492188 193.628906 207.277344 L 193.628906 149.980469 C 193.628906 149.367188 194.121094 148.875 194.730469 148.875 C 195.335938 148.875 195.828125 149.367188 195.828125 149.980469 L 195.828125 207.261719 C 195.878906 211.179688 194.957031 213.867188 193.007812 215.46875 C 191.582031 216.644531 189.617188 217.222656 186.992188 217.222656 " fill-opacity="1" fill-rule="nonzero"/></g><path fill="#231f20" d="M 187.878906 155.125 C 187.695312 155.125 187.503906 155.078125 187.332031 154.976562 L 154.074219 135.828125 C 153.546875 135.523438 153.367188 134.847656 153.667969 134.316406 C 153.96875 133.789062 154.640625 133.605469 155.167969 133.910156 L 188.425781 153.0625 C 188.953125 153.363281 189.136719 154.039062 188.835938 154.570312 C 188.628906 154.925781 188.261719 155.125 187.878906 155.125 " fill-opacity="1" fill-rule="nonzero"/><path fill="#231f20" d="M 201.058594 152.023438 C 199.367188 152.023438 197.410156 151.78125 195.160156 151.289062 C 194.566406 151.160156 194.1875 150.574219 194.316406 149.976562 C 194.445312 149.378906 195.03125 149 195.625 149.128906 C 200.628906 150.214844 203.960938 150.007812 205.804688 148.492188 C 207.1875 147.355469 207.886719 145.34375 207.933594 142.347656 L 172.753906 121.929688 C 172.226562 121.625 172.046875 120.945312 172.351562 120.417969 C 172.65625 119.890625 173.328125 119.710938 173.851562 120.015625 L 209.585938 140.753906 C 209.921875 140.949219 210.128906 141.308594 210.136719 141.695312 C 210.1875 145.753906 209.222656 148.535156 207.195312 150.203125 C 205.714844 151.421875 203.710938 152.023438 201.058594 152.023438 " fill-opacity="1" fill-rule="nonzero"/><path fill="#231f20" d="M 201.296875 208.957031 C 199.539062 208.957031 197.488281 208.695312 195.101562 208.175781 C 194.507812 208.046875 194.132812 207.460938 194.261719 206.863281 C 194.386719 206.265625 194.972656 205.886719 195.566406 206.015625 C 200.738281 207.140625 204.125 206.96875 205.921875 205.488281 C 207.316406 204.34375 207.976562 202.222656 207.9375 199.007812 L 207.9375 141.710938 C 207.9375 141.101562 208.429688 140.605469 209.035156 140.605469 C 209.644531 140.605469 210.136719 141.101562 210.136719 141.710938 L 210.136719 198.992188 C 210.183594 202.910156 209.261719 205.601562 207.3125 207.203125 C 205.886719 208.375 203.921875 208.957031 201.296875 208.957031 " fill-opacity="1" fill-rule="nonzero"/><path fill="#231f20" d="M 202.1875 146.855469 C 202 146.855469 201.8125 146.808594 201.640625 146.710938 L 168.382812 127.558594 C 167.855469 127.253906 167.671875 126.578125 167.976562 126.050781 C 168.277344 125.519531 168.949219 125.335938 169.476562 125.640625 L 202.734375 144.792969 C 203.261719 145.097656 203.441406 145.769531 203.140625 146.300781 C 202.9375 146.65625 202.566406 146.855469 202.1875 146.855469 " fill-opacity="1" fill-rule="nonzero"/><g clip-path="url(#id3)"><path fill="#231f20" d="M 215.367188 143.789062 C 213.671875 143.789062 211.71875 143.542969 209.464844 143.054688 C 208.871094 142.925781 208.496094 142.339844 208.621094 141.742188 C 208.75 141.144531 209.335938 140.765625 209.929688 140.894531 C 214.9375 141.980469 218.265625 141.773438 220.113281 140.257812 C 221.492188 139.121094 222.191406 137.105469 222.242188 134.113281 L 187.058594 113.691406 C 186.535156 113.386719 186.355469 112.710938 186.65625 112.183594 C 186.960938 111.65625 187.632812 111.472656 188.160156 111.78125 L 223.890625 132.519531 C 224.226562 132.714844 224.4375 133.070312 224.441406 133.460938 C 224.492188 137.519531 223.53125 140.300781 221.503906 141.96875 C 220.019531 143.1875 218.015625 143.789062 215.367188 143.789062 " fill-opacity="1" fill-rule="nonzero"/></g><g clip-path="url(#id4)"><path fill="#231f20" d="M 215.605469 200.71875 C 213.847656 200.71875 211.792969 200.460938 209.410156 199.941406 C 208.816406 199.8125 208.4375 199.226562 208.566406 198.628906 C 208.695312 198.03125 209.28125 197.652344 209.875 197.78125 C 215.042969 198.902344 218.429688 198.734375 220.226562 197.257812 C 221.625 196.109375 222.28125 193.988281 222.242188 190.773438 L 222.242188 133.476562 C 222.242188 132.867188 222.734375 132.371094 223.34375 132.371094 C 223.949219 132.371094 224.441406 132.867188 224.441406 133.476562 L 224.441406 190.757812 C 224.492188 194.675781 223.566406 197.367188 221.621094 198.96875 C 220.191406 200.140625 218.230469 200.71875 215.605469 200.71875 " fill-opacity="1" fill-rule="nonzero"/></g><path fill="#231f20" d="M 216.492188 138.621094 C 216.304688 138.621094 216.121094 138.574219 215.945312 138.476562 L 182.6875 119.324219 C 182.164062 119.019531 181.980469 118.34375 182.28125 117.816406 C 182.582031 117.285156 183.253906 117.101562 183.78125 117.40625 L 217.039062 136.558594 C 217.566406 136.859375 217.75 137.535156 217.445312 138.066406 C 217.242188 138.421875 216.875 138.621094 216.492188 138.621094 " fill-opacity="1" fill-rule="nonzero"/><g fill="#000000" fill-opacity="1"><g transform="translate(103.077052, 240.830627)"><g><path d="M 3 0 L 3 -6.601562 L 7.742188 0 L 9.605469 0 L 4.429688 -7.039062 L 9.605469 -14.078125 L 7.742188 -14.078125 L 3 -7.453125 L 3 -14.078125 L 1.550781 -14.078125 L 1.550781 0 Z M 3 0 "/></g></g></g><g fill="#000000" fill-opacity="1"><g transform="translate(112.888449, 240.830627)"><g><path d="M 3 -10.371094 L 10.910156 0.871094 L 10.910156 -14.078125 L 9.460938 -14.078125 L 9.460938 -3.726562 L 1.550781 -14.964844 L 1.550781 0 L 3 0 Z M 3 -10.371094 "/></g></g></g><g fill="#000000" fill-opacity="1"><g transform="translate(125.349336, 240.830627)"><g><path d="M 13.953125 -7.078125 C 13.953125 -5.464844 13.371094 -4.097656 12.253906 -2.980469 C 11.117188 -1.84375 9.75 -1.285156 8.15625 -1.285156 C 6.5625 -1.285156 5.195312 -1.84375 4.078125 -2.980469 C 2.941406 -4.097656 2.378906 -5.464844 2.378906 -7.078125 C 2.378906 -8.652344 2.941406 -10.019531 4.078125 -11.15625 C 5.195312 -12.277344 6.5625 -12.855469 8.15625 -12.855469 C 9.75 -12.855469 11.117188 -12.277344 12.253906 -11.15625 C 13.371094 -10.019531 13.953125 -8.652344 13.953125 -7.078125 Z M 15.402344 -7.078125 C 15.402344 -8.074219 15.195312 -9.003906 14.820312 -9.894531 C 14.449219 -10.765625 13.929688 -11.53125 13.269531 -12.191406 C 12.605469 -12.835938 11.839844 -13.351562 10.972656 -13.722656 C 10.082031 -14.097656 9.148438 -14.304688 8.15625 -14.304688 C 7.164062 -14.304688 6.210938 -14.097656 5.339844 -13.722656 C 4.472656 -13.351562 3.707031 -12.835938 3.042969 -12.191406 C 2.378906 -11.53125 1.863281 -10.765625 1.492188 -9.894531 C 1.117188 -9.003906 0.929688 -8.074219 0.929688 -7.078125 C 0.929688 -6.085938 1.117188 -5.132812 1.492188 -4.265625 C 1.863281 -3.375 2.378906 -2.609375 3.042969 -1.945312 C 3.707031 -1.285156 4.472656 -0.765625 5.339844 -0.394531 C 6.210938 -0.0195312 7.164062 0.164062 8.15625 0.164062 C 9.148438 0.164062 10.082031 -0.0195312 10.972656 -0.394531 C 11.839844 -0.765625 12.605469 -1.285156 13.269531 -1.945312 C 13.929688 -2.609375 14.449219 -3.375 14.820312 -4.265625 C 15.195312 -5.132812 15.402344 -6.085938 15.402344 -7.078125 Z M 15.402344 -7.078125 "/></g></g></g><g fill="#000000" fill-opacity="1"><g transform="translate(141.680965, 240.830627)"><g><path d="M 12.730469 1.136719 L 16 -14.078125 L 14.53125 -14.078125 L 12.335938 -3.851562 L 8.113281 -14.90625 L 3.871094 -3.851562 L 1.699219 -14.078125 L 0.207031 -14.078125 L 3.5 1.136719 L 8.113281 -11.117188 Z M 12.730469 1.136719 "/></g></g></g><g fill="#000000" fill-opacity="1"><g transform="translate(157.888399, 240.830627)"><g><path d="M 3 -1.449219 L 3 -14.078125 L 1.550781 -14.078125 L 1.550781 0 L 8.03125 0 L 8.03125 -1.449219 Z M 3 -1.449219 "/></g></g></g><g fill="#000000" fill-opacity="1"><g transform="translate(166.333656, 240.830627)"><g><path d="M 9.914062 0 L 9.914062 -1.34375 L 3 -1.34375 L 3 -6.355469 L 9.707031 -6.355469 L 9.707031 -7.722656 L 3 -7.722656 L 3 -12.730469 L 9.914062 -12.730469 L 9.914062 -14.078125 L 1.550781 -14.078125 L 1.550781 0 Z M 9.914062 0 "/></g></g></g><g fill="#000000" fill-opacity="1"><g transform="translate(177.800984, 240.830627)"><g><path d="M 12.484375 -7.039062 C 12.484375 -8.050781 12.277344 -8.984375 11.902344 -9.851562 C 11.53125 -10.722656 11.011719 -11.46875 10.371094 -12.089844 C 9.707031 -12.710938 8.941406 -13.1875 8.074219 -13.539062 C 7.183594 -13.890625 6.230469 -14.078125 5.238281 -14.078125 L 1.550781 -14.078125 L 1.550781 0 L 5.238281 0 C 6.230469 0 7.183594 -0.164062 8.074219 -0.515625 C 8.941406 -0.871094 9.707031 -1.367188 10.371094 -1.988281 C 11.011719 -2.609375 11.53125 -3.332031 11.902344 -4.203125 C 12.277344 -5.070312 12.484375 -6.003906 12.484375 -7.039062 Z M 11.074219 -7.039062 C 11.074219 -5.421875 10.496094 -4.078125 9.378906 -3.023438 C 8.257812 -1.964844 6.894531 -1.449219 5.277344 -1.449219 L 3 -1.449219 L 3 -12.628906 L 5.277344 -12.628906 C 6.894531 -12.628906 8.257812 -12.089844 9.378906 -11.054688 C 10.496094 -9.976562 11.074219 -8.632812 11.074219 -7.039062 Z M 11.074219 -7.039062 "/></g></g></g><g fill="#000000" fill-opacity="1"><g transform="translate(191.214037, 240.830627)"><g><path d="M 15.441406 -6.582031 L 8.113281 -6.582031 L 8.113281 -5.320312 L 13.828125 -5.320312 C 13.394531 -4.097656 12.667969 -3.105469 11.632812 -2.378906 C 10.597656 -1.636719 9.441406 -1.285156 8.175781 -1.285156 C 6.5625 -1.285156 5.195312 -1.84375 4.058594 -2.980469 C 2.941406 -4.121094 2.378906 -5.507812 2.378906 -7.101562 C 2.378906 -8.695312 2.941406 -10.058594 4.078125 -11.199219 C 5.195312 -12.316406 6.5625 -12.898438 8.175781 -12.898438 C 9.378906 -12.898438 10.472656 -12.542969 11.449219 -11.863281 C 12.441406 -11.179688 13.144531 -10.289062 13.601562 -9.148438 L 15.132812 -9.148438 C 14.65625 -10.703125 13.765625 -11.945312 12.484375 -12.898438 C 11.199219 -13.847656 9.707031 -14.34375 8.03125 -14.34375 C 7.121094 -14.34375 6.230469 -14.136719 5.363281 -13.765625 C 4.472656 -13.394531 3.707031 -12.875 3.042969 -12.214844 C 2.378906 -11.550781 1.863281 -10.785156 1.492188 -9.914062 C 1.117188 -9.027344 0.929688 -8.074219 0.929688 -7.078125 C 0.929688 -6.085938 1.117188 -5.132812 1.492188 -4.265625 C 1.863281 -3.375 2.378906 -2.609375 3.042969 -1.945312 C 3.707031 -1.285156 4.472656 -0.765625 5.363281 -0.394531 C 6.230469 -0.0195312 7.183594 0.164062 8.175781 0.164062 C 9.875 0.164062 11.40625 -0.371094 12.773438 -1.46875 C 14.136719 -2.585938 14.988281 -3.996094 15.296875 -5.714844 Z M 15.441406 -6.582031 "/></g></g></g><g fill="#000000" fill-opacity="1"><g transform="translate(207.587067, 240.830627)"><g><path d="M 9.914062 0 L 9.914062 -1.34375 L 3 -1.34375 L 3 -6.355469 L 9.707031 -6.355469 L 9.707031 -7.722656 L 3 -7.722656 L 3 -12.730469 L 9.914062 -12.730469 L 9.914062 -14.078125 L 1.550781 -14.078125 L 1.550781 0 Z M 9.914062 0 "/></g></g></g><g fill="#000000" fill-opacity="1"><g transform="translate(219.054395, 240.830627)"><g/></g></g><g fill="#000000" fill-opacity="1"><g transform="translate(224.64317, 240.830627)"><g><path d="M 10.742188 -3.914062 C 10.742188 -4.90625 10.496094 -5.753906 10.019531 -6.417969 C 9.523438 -7.078125 8.859375 -7.535156 8.050781 -7.761719 C 8.527344 -7.96875 8.941406 -8.34375 9.253906 -8.902344 C 9.398438 -9.148438 9.5 -9.398438 9.585938 -9.667969 C 9.667969 -9.9375 9.707031 -10.308594 9.707031 -10.785156 C 9.707031 -11.242188 9.585938 -11.714844 9.378906 -12.171875 C 8.757812 -13.433594 7.410156 -14.078125 5.363281 -14.078125 L 1.550781 -14.078125 L 1.550781 0 L 5.859375 0 C 7.285156 0 8.425781 -0.308594 9.292969 -0.972656 C 9.730469 -1.304688 10.082031 -1.738281 10.351562 -2.277344 C 10.597656 -2.792969 10.742188 -3.332031 10.742188 -3.914062 Z M 8.257812 -10.558594 C 8.257812 -9.792969 8.03125 -9.234375 7.578125 -8.859375 C 7.121094 -8.488281 6.519531 -8.300781 5.777344 -8.300781 L 3 -8.300781 L 3 -12.691406 L 5.363281 -12.691406 C 7.285156 -12.691406 8.257812 -11.964844 8.257812 -10.558594 Z M 9.292969 -4.203125 C 9.292969 -3.351562 9.003906 -2.671875 8.425781 -2.152344 C 7.867188 -1.636719 7.140625 -1.386719 6.273438 -1.386719 L 3 -1.386719 L 3 -6.851562 L 6.5 -6.851562 C 7.222656 -6.851562 7.867188 -6.601562 8.425781 -6.105469 C 8.671875 -5.878906 8.878906 -5.609375 9.046875 -5.300781 C 9.210938 -4.96875 9.292969 -4.617188 9.292969 -4.203125 Z M 9.292969 -4.203125 "/></g></g></g><g fill="#000000" fill-opacity="1"><g transform="translate(235.800019, 240.830627)"><g><path d="M 3.828125 -5.175781 L 6.398438 -11.65625 L 8.941406 -5.175781 Z M 12.566406 0 L 6.398438 -15.050781 L 0.207031 0 L 1.78125 0 L 3.292969 -3.828125 L 9.480469 -3.828125 L 10.992188 0 Z M 12.566406 0 "/></g></g></g><g fill="#000000" fill-opacity="1"><g transform="translate(248.571392, 240.830627)"><g><path d="M 5.445312 -6.625 C 7.265625 -6.191406 8.507812 -5.714844 9.171875 -5.175781 C 9.625 -4.800781 9.851562 -4.328125 9.851562 -3.746094 C 9.851562 -3.167969 9.730469 -2.691406 9.480469 -2.359375 C 8.859375 -1.492188 7.742188 -1.054688 6.167969 -1.054688 C 3.972656 -1.054688 2.734375 -1.800781 2.464844 -3.292969 L 0.765625 -3.292969 C 1.261719 -0.910156 3.0625 0.269531 6.167969 0.269531 C 7.554688 0.269531 8.714844 -0.0195312 9.648438 -0.640625 C 10.765625 -1.367188 11.34375 -2.441406 11.34375 -3.851562 C 11.34375 -5.007812 10.886719 -5.898438 9.976562 -6.519531 C 9.335938 -6.976562 8.300781 -7.390625 6.871094 -7.761719 C 5.421875 -8.136719 4.492188 -8.445312 4.058594 -8.671875 C 3.105469 -9.148438 2.628906 -9.8125 2.648438 -10.679688 C 2.648438 -11.136719 2.734375 -11.53125 2.941406 -11.820312 C 3.476562 -12.628906 4.429688 -13.042969 5.796875 -13.042969 C 7.722656 -13.042969 8.820312 -12.421875 9.109375 -11.21875 L 10.679688 -11.21875 C 10.164062 -13.25 8.527344 -14.285156 5.796875 -14.285156 C 4.554688 -14.285156 3.457031 -13.953125 2.546875 -13.289062 C 1.613281 -12.628906 1.136719 -11.65625 1.136719 -10.328125 C 1.136719 -8.527344 2.585938 -7.285156 5.445312 -6.625 Z M 5.445312 -6.625 "/></g></g></g><g fill="#000000" fill-opacity="1"><g transform="translate(260.452702, 240.830627)"><g><path d="M 9.914062 0 L 9.914062 -1.34375 L 3 -1.34375 L 3 -6.355469 L 9.707031 -6.355469 L 9.707031 -7.722656 L 3 -7.722656 L 3 -12.730469 L 9.914062 -12.730469 L 9.914062 -14.078125 L 1.550781 -14.078125 L 1.550781 0 Z M 9.914062 0 "/></g></g></g></svg>