<svg xmlns="http://www.w3.org/2000/svg" xmlns:xlink="http://www.w3.org/1999/xlink" width="500" zoomAndPan="magnify" viewBox="0 0 375 374.999991" height="500" preserveAspectRatio="xMidYMid meet" version="1.0"><defs><clipPath id="id1"><path d="M 89 56 L 286.226562 56 L 286.226562 279 L 89 279 Z M 89 56 " clip-rule="nonzero"/></clipPath></defs><path fill="#de1d8d" d="M 221.625 300.058594 L 143.980469 283.054688 C 143.78125 283.003906 143.585938 282.957031 143.386719 282.855469 C 141.953125 282.511719 140.566406 281.964844 139.328125 281.324219 C 136.605469 280.039062 134.332031 278.210938 133.09375 276.035156 C 132.351562 274.75 131.609375 272.671875 132.351562 270.351562 C 133.242188 267.730469 135.863281 265.703125 139.277344 264.46875 C 140.515625 264.023438 141.902344 263.726562 143.335938 263.527344 C 144.179688 263.429688 144.921875 263.230469 145.8125 263.230469 C 147.445312 263.230469 149.078125 263.429688 150.660156 263.773438 L 184.210938 271.140625 L 188.269531 272.03125 L 228.355469 280.78125 C 228.550781 280.828125 228.75 280.929688 228.949219 280.976562 C 230.382812 281.324219 231.769531 281.867188 233.003906 282.460938 C 235.726562 283.796875 237.953125 285.574219 239.191406 287.75 C 239.933594 289.035156 240.675781 291.113281 239.933594 293.433594 C 239.042969 296.054688 236.421875 298.082031 233.003906 299.316406 C 231.027344 300.011719 228.898438 300.503906 226.523438 300.503906 C 225.039062 300.503906 223.503906 300.304688 222.070312 300.011719 C 221.921875 299.960938 221.773438 300.011719 221.625 299.960938 Z M 211.132812 283.546875 C 210.886719 284.636719 211.578125 285.722656 212.667969 285.972656 L 228.304688 289.382812 C 228.453125 289.429688 228.601562 289.429688 228.75 289.429688 C 228.800781 289.429688 228.847656 289.382812 228.949219 289.382812 C 229.789062 289.332031 230.53125 288.738281 230.777344 287.847656 C 231.027344 286.761719 230.332031 285.675781 229.195312 285.425781 L 228.949219 285.378906 L 213.558594 282.015625 C 212.46875 281.769531 211.378906 282.460938 211.132812 283.546875 Z M 211.132812 283.546875 " fill-opacity="1" fill-rule="evenodd"/><path fill="#de1d8d" d="M 150.660156 289.085938 L 201.136719 300.109375 L 219.695312 304.164062 L 228.355469 306.039062 C 233.300781 307.128906 237.359375 309.75 239.242188 313.011719 C 239.984375 314.34375 240.726562 316.371094 239.984375 318.695312 C 238.597656 322.847656 233.105469 325.765625 226.523438 325.765625 C 225.433594 325.765625 224.296875 325.566406 223.15625 325.417969 C 222.664062 325.320312 222.117188 325.367188 221.625 325.222656 L 218.40625 324.527344 L 163.179688 312.417969 L 158.183594 311.328125 L 143.980469 308.214844 C 139.03125 307.128906 134.972656 304.558594 133.09375 301.246094 C 132.351562 299.960938 131.609375 297.882812 132.351562 295.5625 C 133.242188 292.941406 135.863281 290.914062 139.277344 289.679688 C 140.515625 289.234375 141.902344 288.9375 143.335938 288.738281 C 144.179688 288.640625 144.921875 288.441406 145.8125 288.441406 C 147.445312 288.441406 149.078125 288.640625 150.660156 288.984375 Z M 213.261719 310.6875 L 228.304688 313.949219 C 228.453125 314 228.601562 314 228.75 314 C 229.691406 314 230.53125 313.355469 230.730469 312.417969 C 230.976562 311.328125 230.285156 310.242188 229.144531 309.996094 L 213.457031 306.535156 C 212.371094 306.289062 211.28125 306.980469 211.035156 308.066406 C 210.984375 308.414062 211.132812 308.660156 211.230469 308.957031 C 211.429688 309.648438 211.875 310.292969 212.617188 310.488281 L 213.261719 310.636719 Z M 213.261719 310.6875 " fill-opacity="1" fill-rule="evenodd"/><path fill="#de1d8d" d="M 159.371094 316.222656 L 220.1875 329.570312 L 224.742188 330.558594 L 228.355469 331.351562 C 233.253906 332.4375 237.359375 335.007812 239.242188 338.320312 C 239.984375 339.65625 240.726562 341.683594 239.984375 344.003906 C 238.597656 348.15625 233.105469 351.074219 226.574219 351.074219 C 225.730469 351.074219 224.890625 350.875 224.046875 350.777344 C 223.304688 350.679688 222.464844 350.679688 221.671875 350.53125 L 219.992188 350.136719 L 151.007812 335.007812 L 147.046875 334.167969 L 143.980469 333.476562 C 139.03125 332.386719 134.972656 329.816406 133.09375 326.507812 C 132.003906 324.628906 131.757812 322.648438 132.351562 320.820312 C 133.738281 316.667969 139.230469 313.753906 145.761719 313.753906 C 147.394531 313.753906 149.027344 313.949219 150.613281 314.296875 L 154.867188 315.234375 L 159.320312 316.222656 Z M 213.558594 331.796875 C 212.46875 331.546875 211.378906 332.242188 211.132812 333.328125 C 210.886719 334.464844 211.578125 335.503906 212.667969 335.75 L 221.574219 337.679688 L 225.730469 338.566406 L 228.304688 339.160156 C 228.453125 339.210938 228.601562 339.210938 228.75 339.210938 C 229.691406 339.210938 230.53125 338.566406 230.730469 337.628906 C 230.976562 336.539062 230.285156 335.453125 229.144531 335.207031 L 225.238281 334.367188 L 221.078125 333.425781 L 213.457031 331.796875 Z M 213.558594 331.796875 " fill-opacity="1" fill-rule="evenodd"/><path fill="#de1d8d" d="M 150.5625 339.113281 L 218.554688 353.992188 C 212.964844 366.347656 200.59375 375 186.140625 375 C 166.496094 375 150.511719 359.03125 150.511719 339.40625 C 150.511719 339.308594 150.5625 339.210938 150.5625 339.113281 Z M 179.90625 367.386719 C 180.253906 366.300781 179.609375 365.164062 178.570312 364.867188 C 170.355469 362.394531 163.824219 356.117188 161.054688 348.007812 C 160.65625 346.972656 159.519531 346.425781 158.480469 346.722656 C 157.441406 347.070312 156.847656 348.257812 157.191406 349.292969 C 160.410156 358.636719 167.980469 365.902344 177.433594 368.722656 C 177.628906 368.769531 177.828125 368.820312 178.027344 368.820312 C 178.917969 368.820312 179.710938 368.277344 179.957031 367.335938 Z M 179.90625 367.386719 " fill-opacity="1" fill-rule="evenodd"/><g clip-path="url(#id1)"><path fill="#de1d8d" d="M 246.070312 221.261719 C 235.925781 235.550781 227.214844 247.90625 226.574219 257.597656 L 226.574219 275.886719 L 229.589844 276.527344 L 233.648438 277.417969 L 238.300781 278.457031 L 238.300781 257.992188 C 238.546875 255.027344 240.578125 250.824219 243.546875 245.878906 C 246.761719 240.542969 251.117188 234.363281 255.621094 227.984375 C 257.007812 226.058594 258.144531 224.378906 258.9375 223.289062 C 260.222656 221.460938 261.359375 219.828125 262.253906 218.542969 C 267.496094 210.929688 274.820312 198.917969 279.96875 185.175781 C 283.582031 175.488281 286.152344 164.910156 286.152344 154.429688 C 286.152344 127.289062 275.117188 102.671875 257.253906 84.875 C 239.390625 67.03125 214.792969 56.007812 187.578125 56.007812 C 160.410156 56.007812 135.765625 67.03125 117.949219 84.875 C 100.085938 102.722656 89.050781 127.289062 89.050781 154.429688 C 89.050781 164.957031 91.625 175.488281 95.238281 185.226562 C 100.382812 199.019531 107.707031 210.980469 112.953125 218.59375 C 113.746094 219.730469 114.882812 221.410156 116.269531 223.339844 C 117.011719 224.425781 118.246094 226.105469 119.582031 228.035156 C 123.195312 233.125 126.710938 238.121094 129.53125 242.46875 C 132.351562 246.820312 134.578125 250.824219 135.863281 254.234375 L 136.605469 256.164062 L 138.636719 256.609375 L 143.238281 257.597656 L 149.472656 258.980469 L 147.742188 252.851562 C 146.453125 248.351562 143.929688 243.410156 140.566406 238.019531 C 137.300781 232.730469 133.339844 227.195312 129.183594 221.261719 C 127.796875 219.285156 126.660156 217.703125 125.917969 216.664062 C 125.027344 215.378906 123.9375 213.847656 122.703125 212.019531 C 118.59375 206.039062 113.101562 197.1875 108.648438 186.957031 C 104.242188 176.871094 100.828125 165.550781 100.878906 154.429688 C 100.878906 130.503906 110.625 108.800781 126.3125 93.132812 C 142 77.460938 163.726562 67.722656 187.675781 67.722656 C 211.628906 67.722656 233.300781 77.460938 249.039062 93.132812 C 264.777344 108.851562 274.523438 130.554688 274.523438 154.429688 C 274.523438 163.523438 272.25 172.769531 269.03125 181.320312 C 264.332031 193.828125 257.5 204.902344 252.703125 211.96875 C 251.265625 214.046875 249.1875 216.960938 247.160156 219.878906 L 246.21875 221.261719 Z M 246.070312 221.261719 " fill-opacity="1" fill-rule="nonzero"/></g><path fill="#de1d8d" d="M 189.210938 44.144531 C 193.269531 44.144531 196.582031 40.832031 196.582031 36.777344 L 196.582031 7.367188 C 196.582031 3.3125 193.269531 0 189.210938 0 C 185.152344 0 181.835938 3.3125 181.835938 7.367188 L 181.835938 36.777344 C 181.835938 40.832031 185.152344 44.144531 189.210938 44.144531 Z M 217.367188 49.828125 C 213.605469 48.296875 211.824219 43.945312 213.359375 40.238281 L 224.59375 13.050781 C 226.128906 9.292969 230.480469 7.515625 234.195312 9.046875 C 237.953125 10.578125 239.734375 14.929688 238.203125 18.636719 L 226.96875 45.824219 C 225.433594 49.582031 221.078125 51.359375 217.367188 49.828125 Z M 157.785156 51.113281 C 161.546875 49.582031 163.328125 45.230469 161.796875 41.523438 L 150.5625 14.335938 C 149.027344 10.578125 144.671875 8.800781 140.960938 10.332031 C 137.199219 11.863281 135.417969 16.214844 136.953125 19.921875 L 148.1875 47.109375 C 149.71875 50.867188 154.074219 52.644531 157.785156 51.113281 Z M 157.785156 51.113281 " fill-opacity="1" fill-rule="evenodd"/><path fill="#de1d8d" d="M 183.617188 129.859375 C 183.765625 128.625 184.90625 127.785156 186.140625 127.933594 C 187.378906 128.082031 188.222656 129.21875 188.074219 130.453125 C 187.777344 132.726562 188.417969 134.902344 189.707031 136.632812 C 190.992188 138.3125 192.921875 139.550781 195.199219 139.847656 C 196.433594 139.996094 197.277344 141.132812 197.128906 142.367188 C 196.980469 143.601562 195.839844 144.445312 194.605469 144.296875 C 191.089844 143.800781 188.121094 141.972656 186.140625 139.351562 C 186.140625 139.300781 186.09375 139.300781 186.09375 139.253906 C 183.320312 140.09375 177.976562 140.882812 174.363281 136.089844 C 173.621094 135.101562 173.820312 133.667969 174.808594 132.925781 C 175.800781 132.183594 177.234375 132.382812 177.976562 133.371094 C 179.710938 135.644531 182.332031 135.546875 184.0625 135.148438 C 183.570312 133.46875 183.421875 131.691406 183.667969 129.859375 Z M 224.792969 134.902344 Z M 188.171875 116.167969 Z M 184.3125 113.84375 Z M 143.980469 167.726562 Z M 146.949219 148.347656 Z M 150.808594 146.027344 Z M 146.601562 171.386719 Z M 220.140625 166.492188 C 222.613281 164.019531 224.148438 160.609375 224.148438 156.800781 C 224.148438 153.046875 222.613281 149.632812 220.140625 147.113281 C 217.664062 144.640625 214.25 143.109375 210.441406 143.109375 C 209.203125 143.109375 208.164062 142.121094 208.164062 140.835938 C 208.164062 139.597656 209.203125 138.5625 210.441406 138.5625 C 215.488281 138.5625 220.039062 140.589844 223.304688 143.898438 C 226.621094 147.210938 228.652344 151.761719 228.652344 156.753906 C 228.652344 158.136719 228.503906 159.472656 228.207031 160.757812 C 229.589844 161.152344 231.027344 161.398438 232.558594 161.398438 C 240.578125 161.398438 247.160156 155.21875 247.800781 147.359375 C 251.265625 145.285156 253.59375 141.476562 253.59375 137.128906 C 253.59375 131.988281 250.324219 127.585938 245.773438 125.957031 C 244.191406 128.921875 241.8125 131.292969 239.042969 132.976562 C 235.035156 135.347656 230.136719 136.1875 225.238281 134.953125 L 225.039062 134.902344 L 224.792969 134.753906 C 223.703125 134.210938 223.207031 132.828125 223.800781 131.738281 C 224.296875 130.800781 225.386719 130.304688 226.375 130.554688 C 230.035156 131.492188 233.746094 130.847656 236.765625 129.070312 C 239.785156 127.289062 242.109375 124.375 243.050781 120.714844 C 243.546875 118.789062 243.597656 116.8125 243.25 114.933594 C 241.515625 110.679688 238.203125 106.824219 233.746094 104.253906 C 233.550781 104.207031 233.351562 104.15625 233.152344 104.105469 C 232.660156 103.957031 232.214844 103.710938 231.917969 103.316406 C 231.371094 103.066406 230.777344 102.773438 230.183594 102.574219 C 223.851562 100.152344 217.21875 100.546875 211.972656 103.117188 C 209.253906 98.964844 204.550781 96.246094 199.207031 96.246094 C 195.941406 96.246094 192.921875 97.285156 190.449219 99.015625 C 190.894531 100.152344 191.191406 101.339844 191.386719 102.523438 C 192.128906 107.121094 191.140625 111.964844 188.222656 116.070312 C 187.578125 116.957031 186.390625 117.304688 185.398438 116.761719 C 184.3125 116.21875 183.816406 114.832031 184.410156 113.746094 L 184.609375 113.449219 C 186.835938 110.382812 187.578125 106.675781 186.984375 103.265625 C 186.636719 101.289062 185.894531 99.359375 184.707031 97.679688 C 182.234375 96 179.265625 95.011719 176.097656 95.011719 C 167.980469 95.011719 161.300781 101.339844 160.804688 109.347656 C 158.183594 107.21875 154.816406 105.933594 151.207031 105.933594 C 150.613281 105.933594 150.066406 105.984375 149.523438 106.035156 C 149.273438 106.230469 149.027344 106.378906 148.679688 106.429688 C 145.019531 107.367188 142.101562 109.691406 140.316406 112.707031 C 138.535156 115.722656 137.894531 119.429688 138.832031 123.089844 C 139.773438 126.746094 142.101562 129.664062 145.117188 131.441406 C 148.136719 133.222656 151.847656 133.863281 155.511719 132.925781 L 155.808594 132.875 L 156.105469 132.875 C 157.339844 132.875 158.378906 133.863281 158.378906 135.148438 C 158.378906 136.238281 157.589844 137.175781 156.597656 137.375 C 151.75 138.5625 146.898438 137.722656 142.890625 135.347656 C 138.882812 132.976562 135.765625 129.070312 134.527344 124.175781 L 134.480469 123.878906 C 134.28125 123.089844 134.183594 122.296875 134.082031 121.507812 C 127.105469 122.941406 121.859375 129.070312 121.859375 136.484375 C 121.859375 140.785156 123.640625 144.742188 126.5625 147.507812 C 124.382812 150.128906 123.097656 153.488281 123.097656 157.199219 C 123.097656 159.621094 123.640625 161.941406 124.679688 163.96875 C 124.878906 164.117188 125.027344 164.265625 125.175781 164.464844 C 127.351562 167.527344 130.617188 169.40625 134.082031 170 C 137.546875 170.59375 141.210938 169.804688 144.277344 167.628906 C 147.34375 165.453125 149.226562 162.191406 149.820312 158.78125 C 150.414062 155.320312 149.621094 151.660156 147.445312 148.597656 L 147.246094 148.300781 C 146.703125 147.164062 147.148438 145.828125 148.234375 145.285156 C 149.226562 144.789062 150.464844 145.085938 151.058594 145.976562 C 153.976562 150.078125 154.964844 154.921875 154.222656 159.519531 C 153.480469 164.117188 150.957031 168.417969 146.851562 171.335938 C 146.304688 171.730469 145.761719 172.078125 145.167969 172.421875 C 145.167969 172.570312 145.167969 172.71875 145.167969 172.867188 C 145.167969 181.320312 151.996094 188.144531 160.460938 188.144531 C 164.960938 188.144531 169.019531 186.214844 171.792969 183.101562 L 171.988281 182.851562 C 172.238281 182.953125 172.484375 183.101562 172.683594 183.199219 C 172.929688 191.453125 170.308594 201.6875 164.664062 213.945312 C 177.925781 206.234375 187.527344 193.628906 193.515625 176.230469 C 193.8125 176.230469 194.109375 176.277344 194.457031 176.277344 C 198.8125 176.277344 202.621094 173.90625 204.699219 170.445312 C 204.253906 167.429688 202.867188 164.761719 200.839844 162.683594 C 198.367188 160.210938 194.949219 158.679688 191.140625 158.679688 C 189.902344 158.679688 188.863281 157.640625 188.863281 156.40625 C 188.863281 155.171875 189.855469 154.132812 191.140625 154.132812 C 196.1875 154.132812 200.742188 156.160156 204.007812 159.472656 C 206.925781 162.386719 208.855469 166.242188 209.253906 170.59375 C 209.351562 170.644531 209.449219 170.691406 209.550781 170.742188 C 209.847656 170.59375 210.242188 170.496094 210.589844 170.496094 C 214.347656 170.496094 217.765625 168.960938 220.289062 166.492188 Z M 201.039062 115.328125 C 200.296875 114.339844 200.492188 112.90625 201.484375 112.164062 C 202.472656 111.421875 203.90625 111.621094 204.648438 112.609375 C 206.382812 114.882812 209.003906 114.785156 210.738281 114.386719 C 210.242188 112.707031 210.09375 110.929688 210.339844 109.097656 C 210.488281 107.863281 211.628906 107.023438 212.863281 107.171875 C 214.101562 107.320312 214.941406 108.457031 214.792969 109.691406 C 214.496094 111.964844 215.140625 114.140625 216.429688 115.871094 C 217.714844 117.550781 219.644531 118.738281 221.921875 119.085938 C 223.15625 119.234375 224 120.371094 223.851562 121.605469 C 223.703125 122.839844 222.5625 123.683594 221.328125 123.535156 C 217.8125 123.039062 214.84375 121.210938 212.863281 118.589844 C 212.863281 118.539062 212.816406 118.539062 212.816406 118.492188 C 210.042969 119.332031 204.699219 120.121094 201.085938 115.328125 Z M 163.429688 156.949219 C 166.941406 157.445312 169.910156 159.273438 171.890625 161.894531 C 171.890625 161.941406 171.941406 161.941406 171.941406 161.992188 C 174.710938 161.152344 180.054688 160.359375 183.667969 165.15625 C 184.410156 166.144531 184.210938 167.578125 183.222656 168.320312 C 182.234375 169.0625 180.796875 168.863281 180.054688 167.875 C 178.324219 165.601562 175.699219 165.699219 173.96875 166.09375 C 174.464844 167.777344 174.613281 169.554688 174.363281 171.386719 C 174.214844 172.621094 173.078125 173.460938 171.839844 173.3125 C 170.605469 173.164062 169.761719 172.027344 169.910156 170.792969 C 170.207031 168.519531 169.566406 166.34375 168.277344 164.613281 C 166.992188 162.933594 165.0625 161.746094 162.785156 161.398438 C 161.546875 161.25 160.707031 160.113281 160.855469 158.878906 C 161.003906 157.640625 162.140625 156.800781 163.378906 156.949219 Z M 163.429688 156.949219 " fill-opacity="1" fill-rule="evenodd"/></svg>